<svg xmlns="http://www.w3.org/2000/svg" width="1428" height="420" viewBox="0 0 1428 420" version="1.1">
	<path fill-opacity="0.020" d="M 0 210.001 L 0 420.001 714.250 419.751 L 1428.500 419.500 1428.752 209.750 L 1429.005 -0 714.502 -0 L 0 0 0 210.001 M 0.491 210.500 C 0.491 326, 0.607 373.102, 0.750 315.170 C 0.893 257.239, 0.893 162.739, 0.750 105.170 C 0.607 47.602, 0.491 95, 0.491 210.500 M 17.667 17.667 C 17.300 18.033, 17 104.883, 17 210.667 L 17 403 715.500 403 L 1414 403 1414 210 L 1414 17 716.167 17 C 332.358 17, 18.033 17.300, 17.667 17.667 M 691.500 63.641 C 681.444 65.765, 662.395 72.271, 654.379 76.319 C 613.312 97.058, 583.772 135.880, 574.565 181.208 C 572.380 191.970, 572.380 228.030, 574.565 238.792 C 586.890 299.476, 632.540 344.210, 694.905 356.717 C 706.865 359.116, 735.076 359.072, 747.410 356.636 C 778.503 350.493, 804.230 336.895, 826.062 315.062 C 843.647 297.478, 854.506 279.945, 862.061 256.938 C 868.035 238.745, 869.392 230.084, 869.418 210 C 869.445 189.881, 868.128 181.540, 861.965 162.771 C 847.424 118.488, 812.624 83.284, 769.342 69.072 C 749.994 62.719, 744.875 61.990, 720.292 62.082 C 705.171 62.138, 696.357 62.616, 691.500 63.641 M 936 101.115 C 931.875 101.572, 924.900 102.296, 920.500 102.723 L 912.500 103.500 912.500 193.500 L 912.500 283.500 919.004 283.790 C 930.332 284.295, 929.500 287.748, 929.500 240.216 L 929.500 199.272 947 198.699 C 980.152 197.612, 989.433 191.567, 993.055 168.702 C 994.686 158.405, 993.765 129.523, 991.578 122.402 C 989.298 114.977, 984.052 108.636, 977.765 105.706 C 971.978 103.010, 955.548 99.919, 948.185 100.141 C 945.608 100.219, 940.125 100.657, 936 101.115 M 68.128 104.345 C 67.291 105.355, 67.057 129.243, 67.245 194.609 L 67.500 283.500 102.294 283.763 L 137.088 284.026 136.794 276.763 L 136.500 269.500 110.724 269 L 84.947 268.500 84.948 231.676 L 84.949 194.852 106.237 194.960 C 122.345 195.041, 127.961 194.749, 129.316 193.758 C 130.781 192.687, 131.052 191.270, 130.804 185.974 L 130.500 179.500 107.750 179.231 L 85 178.962 85 148.499 L 85 118.036 109.250 117.768 L 133.500 117.500 133.500 110.500 L 133.500 103.500 101.384 103.236 C 75.139 103.021, 69.059 103.224, 68.128 104.345 M 929.500 149.750 L 929.500 183.500 947.042 183 L 964.585 182.500 968.762 179.190 C 974.245 174.845, 975.129 171.654, 975.735 154.006 C 976.873 120.891, 972.692 116.038, 943 116.012 L 929.500 116 929.500 149.750 M 427.619 129.715 C 425.900 130.156, 425.780 131.006, 426.230 139.599 L 426.721 149 422.942 149 C 416.569 149, 416 149.566, 416 155.907 C 416 159.038, 416.540 162.140, 417.200 162.800 C 417.860 163.460, 420.222 164, 422.450 164.001 L 426.500 164.002 426.516 212.251 C 426.529 254.574, 426.747 261.480, 428.291 268.478 C 429.662 274.696, 430.746 277.174, 433.202 279.709 C 437.804 284.456, 445.282 286.394, 456 285.618 C 469.211 284.661, 469 284.786, 469 277.883 L 469 272 459.111 272 C 445.941 272, 445.184 271.396, 443.386 259.431 C 442.424 253.032, 442.037 238.239, 442.022 207.250 L 442 164 450.545 164 C 458.335 164, 459.313 163.778, 461.600 161.491 C 463.696 159.395, 464.059 158.202, 463.804 154.241 L 463.500 149.500 452.469 149.219 L 441.438 148.939 441.824 142.101 C 442.045 138.195, 441.732 134.367, 441.094 133.175 C 439.484 130.168, 432.672 128.418, 427.619 129.715 M 258.171 149.869 C 248.248 153.896, 243.027 161.313, 240.832 174.500 C 238.952 185.795, 238.972 250.521, 240.859 261.165 C 242.854 272.421, 246.853 278.664, 254.514 282.486 C 259.834 285.140, 261.706 285.512, 271.335 285.827 C 281.087 286.146, 287.751 285.404, 301.750 282.438 C 303.799 282.004, 304 281.391, 304 275.564 C 304 268.615, 303.208 267.618, 299 269.267 C 297.625 269.806, 289.750 270.448, 281.500 270.693 C 264.149 271.208, 261.827 270.432, 257.848 262.789 C 255.842 258.936, 255.551 256.518, 254.986 239 C 254.640 228.275, 254.529 219.162, 254.738 218.750 C 254.947 218.338, 265.554 217.993, 278.309 217.985 C 291.064 217.976, 302.043 217.624, 302.706 217.203 C 304.630 215.980, 302.788 171.197, 300.518 164 C 298.602 157.926, 293.049 151.754, 287.361 149.378 C 282.402 147.305, 263.712 147.620, 258.171 149.869 M 356.046 152.061 C 350.846 154.223, 346.277 155.656, 345.893 155.246 C 345.509 154.836, 345.035 153.600, 344.840 152.500 C 344.560 150.915, 343.317 150.314, 338.846 149.604 C 329.088 148.053, 330 141.280, 330 215.314 C 330 290.229, 329.154 284, 339.329 284 L 345 284 345 227.136 L 345 170.272 349.750 168.543 C 352.363 167.592, 357.435 165.731, 361.021 164.407 C 364.608 163.083, 368.883 162.002, 370.521 162.004 C 375.312 162.010, 379.744 165.336, 380.956 169.835 C 382.770 176.572, 383.971 206.018, 383.986 244.095 C 384.002 286.352, 383.449 284, 393.369 284 L 399.080 284 398.685 229.250 C 398.435 194.559, 397.875 172.204, 397.157 168.233 C 395.800 160.731, 392.825 154.536, 389.747 152.800 C 378.834 146.649, 369.555 146.445, 356.046 152.061 M 496.227 149.811 C 484.308 153.628, 480.604 160.402, 480.537 178.500 C 480.505 187.107, 480.839 189.196, 482.936 193.500 C 485.939 199.665, 495.838 210.151, 506.664 218.634 C 517.595 227.200, 524.747 235.135, 525.591 239.631 C 526.354 243.701, 525.501 253.644, 523.890 259.453 C 523.287 261.627, 521.249 264.951, 519.360 266.840 L 515.927 270.273 507.213 269.631 C 502.421 269.278, 494.788 268.709, 490.250 268.366 L 482 267.743 482 274.312 C 482 278.069, 482.478 281.177, 483.116 281.572 C 483.730 281.951, 490.592 283.099, 498.366 284.123 C 509.738 285.621, 513.672 285.774, 518.500 284.909 C 533.490 282.221, 539.497 273.354, 542.007 250.216 C 542.949 241.523, 542.881 239.104, 541.568 234.585 C 538.879 225.336, 532.277 217.653, 517.500 206.575 C 510.412 201.261, 501.140 192.150, 498.364 187.770 C 494.043 180.953, 495.699 166.845, 501.165 163.905 C 505.368 161.645, 510.951 161.220, 518.720 162.569 C 529.768 164.488, 534.324 162.259, 535.182 154.515 L 535.500 151.644 526 149.895 C 513.900 147.667, 503.016 147.637, 496.227 149.811 M 1025.003 149.926 C 1014.889 151.722, 1014.116 152.342, 1015.437 157.605 C 1016.365 161.302, 1019.605 164, 1023.118 164 C 1024.833 164, 1029.896 163.250, 1034.368 162.334 C 1043.865 160.388, 1049.330 161.017, 1051.418 164.297 C 1052.409 165.853, 1052.924 170.799, 1053.171 181.130 L 1053.521 195.759 1043.511 196.267 C 1029.279 196.988, 1020.828 199.833, 1014.964 205.876 C 1008.322 212.719, 1007.526 217.025, 1008.339 241.733 C 1009.096 264.780, 1010.285 274.982, 1012.689 279.050 C 1016.233 285.051, 1028.286 287.868, 1036.223 284.551 C 1038.131 283.754, 1042.237 281.028, 1045.348 278.494 C 1051.382 273.579, 1053 273.454, 1053 277.904 C 1053 282.311, 1055.738 284, 1062.878 284 L 1069.098 284 1068.799 221.671 L 1068.500 159.342 1065.616 155.562 C 1061.155 149.715, 1056.348 148.026, 1044.500 148.142 C 1039 148.197, 1030.226 148.999, 1025.003 149.926 M 1125 151.505 C 1112.860 159.070, 1112.441 159.134, 1111.827 153.500 C 1111.525 150.731, 1111.101 150.432, 1106.327 149.622 C 1103.482 149.139, 1099.979 149.039, 1098.543 149.400 L 1095.931 150.055 1096.216 215.375 C 1096.452 269.750, 1096.736 280.978, 1097.907 282.389 C 1099.015 283.724, 1100.670 284.022, 1105.686 283.792 L 1112.057 283.500 1112.278 228.154 L 1112.500 172.807 1121.630 167.555 C 1128.599 163.547, 1132.146 162.141, 1136.617 161.615 C 1139.838 161.237, 1142.867 160.533, 1143.350 160.050 C 1143.832 159.568, 1144.458 157.120, 1144.740 154.611 C 1145.218 150.370, 1145.064 149.975, 1142.562 149.024 C 1137.131 146.959, 1130.878 147.842, 1125 151.505 M 1173.500 149.670 C 1169.100 150.499, 1164.825 151.539, 1164 151.980 C 1162.131 152.979, 1162.370 157.389, 1164.465 160.587 C 1166.754 164.080, 1170.125 164.479, 1180.638 162.500 C 1192.055 160.351, 1197.808 161.107, 1199.668 165.002 C 1200.375 166.482, 1200.956 173.204, 1201.092 181.500 L 1201.323 195.500 1191.412 196.128 C 1173.313 197.275, 1163.235 201.875, 1158.647 211.081 C 1156.055 216.283, 1156 216.798, 1156 236.022 C 1156 257.433, 1157.923 275.426, 1160.657 279.599 C 1163.183 283.454, 1169.087 286, 1175.500 286 C 1182.026 286, 1186.431 284.029, 1193.153 278.103 C 1195.713 275.846, 1198.261 274, 1198.816 274 C 1199.370 274, 1200.129 275.806, 1200.502 278.013 C 1201.352 283.041, 1203.384 284.185, 1210.776 283.799 L 1216.500 283.500 1216.500 222.500 L 1216.500 161.500 1214 157 C 1210.233 150.219, 1206.067 148.539, 1192.500 148.331 C 1186.152 148.234, 1178.117 148.801, 1173.500 149.670 M 1270.500 152.075 C 1265.550 154.195, 1261.261 155.946, 1260.969 155.965 C 1260.677 155.984, 1259.942 154.685, 1259.336 153.079 C 1258.413 150.634, 1257.506 150.048, 1253.773 149.489 C 1251.320 149.121, 1248.230 148.973, 1246.907 149.160 L 1244.500 149.500 1244.500 215.097 C 1244.500 269.226, 1244.740 280.983, 1245.872 282.347 C 1246.888 283.570, 1248.914 284, 1253.661 284 L 1260.078 284 1259.789 227 C 1259.630 195.649, 1259.516 169.999, 1259.535 170 C 1259.658 170.001, 1271.454 165.729, 1275.986 164.042 C 1279.003 162.919, 1282.759 162, 1284.332 162 C 1288.378 162, 1292.462 165.264, 1294.636 170.237 C 1296.353 174.163, 1296.539 178.610, 1297 226.546 C 1297.585 287.446, 1296.984 284, 1307.023 284 L 1313 284 1313 226.583 L 1313 169.165 1323.752 165.583 C 1336.539 161.322, 1340.163 161.124, 1344.525 164.451 C 1350.144 168.737, 1350.359 170.889, 1350.959 228.832 C 1351.580 288.855, 1350.670 284, 1361.290 284 L 1367.197 284 1366.688 229.250 C 1366.152 171.669, 1365.610 164.231, 1361.407 156.890 C 1358.504 151.819, 1351.303 148.601, 1341.863 148.158 C 1334.725 147.822, 1333.466 148.099, 1322.594 152.399 C 1316.197 154.930, 1310.270 157, 1309.423 157 C 1308.576 157, 1306.222 155.718, 1304.191 154.150 C 1294.713 146.833, 1284.245 146.188, 1270.500 152.075 M 151.222 149.672 C 149.802 150.242, 149.855 150.702, 153.525 169.500 C 154.813 176.100, 156.605 185.550, 157.506 190.500 C 158.408 195.450, 159.757 202.650, 160.505 206.500 C 161.253 210.350, 162.604 217.550, 163.509 222.500 C 164.413 227.450, 165.556 233.300, 166.047 235.500 C 166.539 237.700, 167.883 244.675, 169.034 251 C 170.185 257.325, 171.727 265.650, 172.462 269.500 C 173.197 273.350, 174.089 278.188, 174.445 280.250 L 175.091 284 186.478 284 C 196.460 284, 197.929 283.784, 198.379 282.250 C 199.005 280.121, 201.799 266.879, 203.496 258 C 204.179 254.425, 206.336 243.625, 208.288 234 C 213.794 206.856, 217.695 186.439, 219.464 175.500 C 220.353 170, 221.476 163.250, 221.959 160.500 C 223.226 153.288, 221.773 150.752, 215.742 149.650 C 213.136 149.174, 210.403 149.015, 209.667 149.297 C 208.442 149.767, 207.457 153.966, 203.987 173.500 C 203.401 176.800, 202.232 183.325, 201.390 188 C 200.547 192.675, 199.461 198.750, 198.975 201.500 C 198.489 204.250, 196.702 214.150, 195.002 223.500 C 193.303 232.850, 191.278 244.100, 190.503 248.500 C 189.728 252.900, 188.789 258.188, 188.416 260.250 C 187.692 264.256, 186.485 265.107, 185.581 262.250 C 185.276 261.288, 182.768 247.675, 180.008 232 C 177.248 216.325, 174.343 199.900, 173.551 195.500 C 172.759 191.100, 171.372 183.225, 170.469 178 C 168.091 164.244, 166.046 154.954, 164.941 152.891 C 163.483 150.166, 154.965 148.167, 151.222 149.672 M 264.401 163.674 C 258.453 166.641, 256.417 173.834, 255.814 194 L 255.500 204.500 271 204.749 C 279.525 204.885, 287.009 204.660, 287.632 204.249 C 289.276 203.161, 287.506 175.783, 285.434 170.263 C 283.231 164.391, 279.535 161.984, 272.846 162.064 C 269.906 162.099, 266.105 162.824, 264.401 163.674 M 1042 210.973 C 1031.756 212.296, 1029.325 213.025, 1027.039 215.458 C 1024.764 217.880, 1024.759 217.956, 1025.162 243.329 C 1025.616 271.974, 1025.776 272.640, 1031.901 271.491 C 1036.102 270.703, 1039.605 268.996, 1047 264.134 L 1052.500 260.517 1052.500 235.259 L 1052.500 210 1050 210.131 C 1048.625 210.203, 1045.025 210.582, 1042 210.973 M 1186.427 211.384 C 1181.987 212.019, 1177.123 213.344, 1175.618 214.331 L 1172.882 216.124 1173.191 243.099 C 1173.533 272.962, 1173.441 272.578, 1179.965 271.435 C 1184.076 270.716, 1187.572 269.018, 1195 264.134 L 1200.500 260.517 1200.500 235.259 L 1200.500 210.001 1197.500 210.116 C 1195.850 210.179, 1190.867 210.750, 1186.427 211.384" stroke="none" fill="black" fill-rule="evenodd"/>
	<path fill-opacity="0.168" d="M 0 210.001 L 0 420.001 714.250 419.751 L 1428.500 419.500 1428.752 209.750 L 1429.005 -0 714.502 -0 L 0 0 0 210.001 M 0.491 210.500 C 0.491 326, 0.607 373.102, 0.750 315.170 C 0.893 257.239, 0.893 162.739, 0.750 105.170 C 0.607 47.602, 0.491 95, 0.491 210.500 M 17 210 L 17 403 715.500 403 L 1414 403 1414 210 L 1414 17 715.500 17 L 17 17 17 210 M 701 62.666 C 650.451 70.627, 610.015 99.674, 588.007 143.835 C 582.458 154.971, 576.588 172.763, 574.467 184.881 C 572.267 197.449, 572.505 224.377, 574.927 236.870 C 580.769 267.006, 594.825 293.665, 616.080 314.920 C 641.142 339.982, 672.853 354.675, 709.075 358.007 C 734.702 360.365, 763.904 354.628, 788 342.504 C 824.318 324.229, 852.110 290.665, 863.353 251.500 C 867.978 235.392, 869.317 226.072, 869.317 210 C 869.317 193.991, 867.988 184.687, 863.389 168.500 C 856.639 144.744, 842.969 121.824, 824.919 103.997 C 803.895 83.233, 775.367 68.743, 745.119 63.463 C 737.403 62.116, 707.878 61.583, 701 62.666 M 653 186 L 653 272 657.066 272 C 663.224 272, 665 270.642, 665 265.933 C 665 263.392, 665.520 261.738, 666.429 261.389 C 667.248 261.075, 671.584 263.651, 676.582 267.420 C 681.380 271.039, 685.889 274, 686.603 274 C 689.684 274, 698.791 271.606, 702.124 269.921 C 713.457 264.189, 715.461 253.695, 714.716 204 C 714.218 170.752, 713.466 163.595, 709.718 156.398 C 707.438 152.022, 701.689 147.261, 697.263 146.083 C 688.051 143.631, 685.793 143.724, 677.059 146.916 C 663.801 151.760, 665 153.835, 665 126.035 C 665 99.003, 665.304 100, 657.066 100 L 653 100 653 186 M 930 102.067 C 923.125 102.572, 916.487 103.221, 915.250 103.511 L 913 104.038 913 194.136 L 913 284.233 919.497 283.819 C 923.071 283.592, 926.558 282.842, 927.247 282.152 C 928.210 281.189, 928.500 271.424, 928.500 239.950 L 928.500 199 940 198.969 C 961.964 198.910, 976.200 195.623, 983.457 188.933 C 990.244 182.677, 992.206 175.479, 992.773 154.752 C 993.500 128.155, 991.365 118.365, 983.017 110.017 C 975.545 102.545, 958.442 99.980, 930 102.067 M 68 193.986 L 68 284 102 284 L 136 284 136 277.017 L 136 270.034 110.250 269.767 L 84.500 269.500 84.238 231.769 L 83.976 194.038 106.738 193.769 L 129.500 193.500 129.500 186.500 L 129.500 179.500 106.736 179.231 L 83.971 178.962 84.236 148.231 L 84.500 117.500 109.297 117.232 L 134.095 116.965 133.797 110.732 L 133.500 104.500 100.750 104.236 L 68 103.973 68 193.986 M 928.500 150 L 928.500 184 943.500 183.995 C 960.772 183.988, 964.705 183.165, 969.902 178.470 C 975.216 173.669, 976.001 169.986, 975.994 149.884 C 975.988 130.303, 975.167 125.967, 970.600 121.400 C 966.109 116.909, 961.685 116.012, 944 116.006 L 928.500 116 928.500 150 M 427.151 139.750 L 427.500 149.500 422.250 149.802 L 417 150.105 417 156.473 C 417 162.724, 417.055 162.853, 419.976 163.495 C 421.612 163.854, 423.372 163.888, 423.885 163.571 C 424.399 163.253, 425.423 163.226, 426.160 163.509 C 427.255 163.931, 427.504 173.044, 427.524 213.263 C 427.552 272.669, 428.102 276.810, 436.669 282.105 C 439.602 283.917, 442.194 284.480, 448.944 284.771 C 453.650 284.973, 459.975 284.766, 463 284.311 C 468.326 283.510, 468.510 283.376, 468.824 280.103 C 469.002 278.244, 468.881 275.661, 468.555 274.362 C 467.983 272.086, 467.615 272, 458.415 272 C 453.165 272, 448.051 271.563, 447.052 271.028 C 442.645 268.669, 442.104 262.234, 441.954 210.350 L 441.819 163.500 446.344 163.835 C 448.833 164.019, 453.360 163.652, 456.405 163.020 C 461.600 161.941, 462.005 161.643, 462.965 158.185 C 465.242 149.990, 465.376 150.100, 452.750 149.783 L 441.500 149.500 441.811 143.700 C 442.203 136.398, 440.636 131.404, 437.707 130.619 C 436.493 130.294, 433.543 130.021, 431.151 130.014 L 426.802 130 427.151 139.750 M 733.433 148.250 C 734.234 152.079, 739.859 181.795, 742.470 196 C 743.835 203.425, 746.951 220.075, 749.395 233 C 757.495 275.844, 758.402 282.373, 757.131 288.703 C 754.932 299.652, 748.045 307.248, 738.911 308.798 L 734.500 309.546 734.195 314.273 L 733.890 319 738.051 319 C 743.006 319, 753.630 316.412, 756.646 314.471 C 760.638 311.902, 766.277 303.974, 768.205 298.222 C 769.259 295.075, 771.424 285.975, 773.015 278 C 774.607 270.025, 778.203 252.250, 781.008 238.500 C 791.052 189.256, 796.982 156.693, 796.994 150.725 C 797.001 147.562, 794.171 146, 788.435 146 C 785.488 146, 785 146.337, 785 148.369 C 785 149.672, 784.365 154.509, 783.590 159.119 C 782.814 163.729, 781.448 172.225, 780.554 178 C 779.660 183.775, 777.808 195.700, 776.439 204.500 C 771.833 234.101, 769.930 246.476, 769.329 250.739 C 768.690 255.267, 766.582 257.982, 764.962 256.362 C 764.438 255.838, 760.406 233.829, 756.002 207.454 C 751.599 181.079, 747.516 157.141, 746.929 154.258 C 745.654 147.995, 743.318 146, 737.258 146 C 733.330 146, 733.002 146.193, 733.433 148.250 M 260.500 149.391 C 249.176 152.952, 243.682 160.277, 241.394 174.867 C 238.301 194.592, 238.701 249.181, 242.053 264.812 C 243.785 272.889, 248.395 278.949, 255.500 282.490 C 261.063 285.263, 262.301 285.481, 272.500 285.490 C 279.034 285.496, 287.458 284.752, 293.250 283.658 L 303 281.815 303 275.362 L 303 268.909 299.250 269.520 C 297.188 269.855, 293.340 270.551, 290.701 271.065 C 284.366 272.299, 271.432 272.248, 266.832 270.970 C 262.379 269.733, 257.462 264.392, 256.059 259.267 C 254.903 255.047, 253.058 219.881, 253.937 218.820 C 254.247 218.446, 265.375 217.996, 278.667 217.820 C 291.959 217.644, 303.029 217.275, 303.267 217 C 303.505 216.725, 303.374 206.375, 302.974 194 C 302.092 166.637, 300.705 160.748, 293.604 154.202 C 291.187 151.974, 287.475 149.670, 285.355 149.081 C 280.186 147.646, 265.466 147.830, 260.500 149.391 M 357.500 152.025 C 352.550 154.158, 347.811 155.925, 346.969 155.951 C 346.127 155.978, 344.929 154.650, 344.306 153 C 343.205 150.083, 342.990 150, 336.559 150 L 329.944 150 330.222 215.451 C 330.436 265.750, 330.786 281.187, 331.735 282.136 C 332.414 282.815, 335.691 283.567, 339.017 283.808 L 345.064 284.245 344.782 227.122 C 344.627 195.705, 344.527 170, 344.559 170 C 344.592 170, 350.077 168.016, 356.748 165.592 C 366.431 162.072, 369.550 161.335, 372.212 161.935 C 377.300 163.083, 379.624 164.651, 380.769 167.712 C 381.343 169.245, 382.152 171.400, 382.567 172.500 C 382.981 173.600, 383.586 198.441, 383.910 227.701 C 384.356 267.929, 384.801 281.204, 385.735 282.136 C 386.414 282.815, 389.677 283.566, 392.985 283.805 L 399 284.240 399 238.542 C 399 177.625, 397.487 161.358, 391.206 154.725 C 388.041 151.383, 377.744 147.969, 371.145 148.074 C 368.092 148.122, 363.415 149.477, 357.500 152.025 M 498.572 149.541 C 491.046 151.437, 486.319 155.043, 483.693 160.892 C 481.988 164.690, 481.613 167.609, 481.562 177.500 C 481.503 188.910, 481.642 189.756, 484.380 194.697 C 487.642 200.583, 497.690 210.816, 509.500 220.278 C 524.672 232.434, 527.741 237.483, 526.575 248.366 C 525.485 258.537, 523.358 264.521, 519.754 267.554 L 516.513 270.280 503.507 269.525 C 496.353 269.109, 488.700 268.708, 486.500 268.634 L 482.500 268.500 482.195 273.831 C 482.027 276.763, 482.366 279.736, 482.947 280.437 C 484.459 282.258, 500.767 284.500, 512.500 284.500 C 521.581 284.500, 522.925 284.250, 527.126 281.780 C 536.598 276.212, 541.055 264.721, 541.334 245.149 C 541.479 234.949, 541.233 233.003, 539.353 229.500 C 535.946 223.154, 529.637 216.632, 518.160 207.593 C 507.136 198.909, 503.365 195.280, 498.404 188.577 C 495.863 185.145, 495.507 183.822, 495.554 178.007 C 495.673 163.377, 500.826 159.804, 518.618 162.015 C 528.550 163.249, 532.032 162.420, 533.870 158.385 C 535.648 154.483, 535.259 152.099, 532.750 151.513 C 520.455 148.642, 505.555 147.782, 498.572 149.541 M 1028 149.874 C 1013.882 152.421, 1013.323 152.855, 1016.425 158.855 C 1018.836 163.517, 1021.970 164.270, 1031.195 162.400 C 1039.476 160.722, 1049.276 160.876, 1051.113 162.713 C 1052.926 164.526, 1053.853 170.937, 1054.105 183.408 L 1054.350 195.500 1045.533 196.177 C 1027.139 197.590, 1015.769 202.384, 1011.570 210.500 C 1009.725 214.066, 1009.466 216.603, 1009.189 233.884 C 1008.835 255.986, 1010.185 272.678, 1012.750 277.922 C 1014.638 281.782, 1019.418 284.707, 1025.436 285.683 C 1031.169 286.614, 1037.300 284.256, 1044.417 278.386 C 1048.008 275.424, 1051.409 273, 1051.973 273 C 1052.538 273, 1053 274.489, 1053 276.309 C 1053 281.703, 1054.891 283.292, 1061.915 283.800 L 1068.099 284.248 1067.799 221.799 L 1067.500 159.351 1065 155.689 C 1063.547 153.562, 1060.824 151.330, 1058.500 150.362 C 1052.864 148.015, 1039.488 147.800, 1028 149.874 M 1122.180 153.535 C 1117.054 156.647, 1112.749 159.037, 1112.614 158.846 C 1112.479 158.656, 1111.948 156.700, 1111.434 154.500 L 1110.500 150.500 1103.750 150.204 L 1097 149.909 1097 214.763 C 1097 268.718, 1097.235 279.939, 1098.397 281.529 C 1099.492 283.026, 1101.062 283.447, 1105.647 283.470 L 1111.500 283.500 1111.649 228 L 1111.798 172.500 1121.049 167.241 C 1127.777 163.416, 1131.778 161.808, 1135.725 161.345 C 1142.296 160.572, 1144 159.058, 1144 153.988 C 1144 149.380, 1143.501 148.995, 1136.724 148.363 C 1131.773 147.902, 1131.014 148.172, 1122.180 153.535 M 1177 149.567 C 1172.875 150.367, 1168.037 151.262, 1166.250 151.556 C 1163.507 152.007, 1163 152.517, 1163 154.823 C 1163 156.326, 1163.720 158.584, 1164.601 159.841 C 1167.240 163.608, 1170.378 164.209, 1178.569 162.518 C 1189.762 160.206, 1195.569 160.478, 1198.545 163.455 C 1200.837 165.746, 1201 166.600, 1201 176.315 C 1201 182.038, 1201.286 188.809, 1201.636 191.360 L 1202.272 196 1196.386 196.035 C 1188.282 196.083, 1176.245 198.356, 1170.399 200.942 C 1162.248 204.547, 1159.002 208.568, 1156.989 217.550 C 1155.713 223.243, 1157.380 267.651, 1159.130 274.603 C 1160.416 279.709, 1164.227 283.413, 1169.781 284.956 C 1178.015 287.243, 1183.900 285.387, 1192.940 277.654 C 1199.663 271.903, 1201 271.774, 1201 276.878 C 1201 281.926, 1202.778 283.284, 1210.084 283.812 L 1216 284.240 1215.929 228.870 C 1215.890 198.417, 1215.542 170.032, 1215.156 165.792 C 1214.347 156.912, 1212.425 153.520, 1206.552 150.604 C 1201.520 148.105, 1187.143 147.601, 1177 149.567 M 1271.574 151.998 C 1261.662 156.441, 1259 156.908, 1259 154.200 C 1259 151.120, 1256.814 150, 1250.800 150 L 1245 150 1245 215.443 L 1245 280.887 1247.223 282.443 C 1248.480 283.324, 1251.516 284, 1254.214 284 L 1258.984 284 1259.242 226.848 L 1259.500 169.696 1270 165.747 C 1283.405 160.706, 1287.356 160.633, 1291.677 165.346 C 1293.424 167.252, 1295.399 170.541, 1296.065 172.656 C 1296.912 175.345, 1297.460 192.178, 1297.888 228.668 C 1298.225 257.360, 1298.725 281.037, 1299 281.282 C 1300.867 282.950, 1304.523 284, 1308.466 284 L 1313.063 284 1312.781 226.517 L 1312.500 169.035 1315 168.067 C 1336.808 159.628, 1344.766 159.807, 1348.815 168.828 C 1350.256 172.037, 1350.533 179.241, 1351.012 226 C 1351.313 255.425, 1351.927 280.275, 1352.376 281.223 C 1353.301 283.174, 1357.975 284.312, 1363.067 283.827 L 1366.500 283.500 1366.441 235 C 1366.364 171.995, 1365.166 159.987, 1358.355 154.007 C 1354.520 150.640, 1349.919 149.094, 1341.407 148.311 C 1335.772 147.793, 1334.343 148.137, 1322.407 152.876 C 1315.308 155.694, 1309.016 158, 1308.424 158 C 1307.833 158, 1306.326 156.911, 1305.076 155.581 C 1301.750 152.040, 1293.366 148.782, 1286.500 148.363 C 1281.221 148.040, 1279.427 148.477, 1271.574 151.998 M 150.345 151.750 C 151.563 156.191, 157.139 185.050, 164.594 225.500 C 165.405 229.900, 168.196 244.750, 170.796 258.500 L 175.524 283.500 186.762 283.783 C 192.943 283.938, 198 283.758, 198 283.383 C 198 283.007, 201.800 263.755, 206.444 240.600 C 215.287 196.512, 215.906 193.298, 218.975 175.500 C 222.208 156.757, 222.415 153.558, 220.523 151.666 C 219.397 150.540, 217.177 150, 213.676 150 L 208.494 150 205.158 169.250 C 203.324 179.838, 200.954 193.225, 199.893 199 C 198.831 204.775, 197.528 211.975, 196.998 215 C 196.468 218.025, 195.383 224.100, 194.587 228.500 C 193.792 232.900, 192.181 241.900, 191.007 248.500 C 188.360 263.376, 188.179 264, 186.512 264 C 184.884 264, 185.161 265.294, 178.486 226.500 C 177.729 222.100, 176.420 214.675, 175.578 210 C 174.735 205.325, 172.270 191.600, 170.099 179.500 C 167.929 167.400, 165.690 156.290, 165.124 154.811 C 163.753 151.226, 161.172 150, 154.998 150 C 150.593 150, 149.933 150.248, 150.345 151.750 M 683.500 156.510 C 682.950 156.704, 678.558 158.034, 673.740 159.466 L 664.979 162.071 665.240 206.757 L 665.500 251.443 674.500 256.766 C 682.367 261.420, 684.033 262.037, 687.736 261.670 C 696.571 260.792, 699.425 256.720, 701.088 242.619 C 702.526 230.422, 701.765 174.125, 700.089 168.781 C 697.597 160.834, 689.090 154.542, 683.500 156.510 M 268.123 162.105 C 259.020 163.977, 256.466 169.899, 255.756 190.773 L 255.271 205.046 272.386 204.773 L 289.500 204.500 289.207 198.500 C 288.160 177.086, 285.510 165.414, 281.167 163.089 C 278.549 161.688, 272.404 161.224, 268.123 162.105 M 1040.500 210.500 C 1039.950 210.689, 1037.365 211.130, 1034.755 211.482 C 1031.797 211.880, 1028.837 213.107, 1026.897 214.740 L 1023.784 217.359 1024.179 242.430 C 1024.455 259.936, 1024.951 268.179, 1025.822 269.750 C 1028.314 274.242, 1037.285 271.892, 1048.380 263.841 L 1053.043 260.457 1053.271 235.228 L 1053.500 209.999 1047.500 210.079 C 1044.200 210.122, 1041.050 210.312, 1040.500 210.500 M 1186 210.703 C 1179.893 211.754, 1175.751 213.249, 1173.947 215.053 C 1172.118 216.882, 1172.007 218.465, 1172.118 241.250 C 1172.266 271.557, 1172.239 271.408, 1177.699 271.805 C 1182.366 272.144, 1185.431 270.852, 1194.500 264.720 L 1200.500 260.663 1200.500 235.332 L 1200.500 210 1194.500 210.136 C 1191.200 210.211, 1187.375 210.466, 1186 210.703" stroke="none" fill="black" fill-rule="evenodd"/>
	<path fill-opacity="0.067" d="M 0 210.001 L 0 420.001 714.250 419.751 L 1428.500 419.500 1428.752 209.750 L 1429.005 -0 714.502 -0 L 0 0 0 210.001 M 0.491 210.500 C 0.491 326, 0.607 373.102, 0.750 315.170 C 0.893 257.239, 0.893 162.739, 0.750 105.170 C 0.607 47.602, 0.491 95, 0.491 210.500 M 16 210 L 16 403 715.500 403 L 1415 403 1415 210 L 1415 17 715.500 17 L 16 17 16 210 M 704.500 62.611 C 668.689 67.882, 640.171 81.765, 616.468 105.468 C 595.132 126.804, 582.152 151.267, 575.328 183 C 572.743 195.025, 572.743 224.975, 575.328 237 C 582.124 268.603, 595.232 293.317, 616.458 314.542 C 636.471 334.555, 658.606 346.863, 688.119 354.390 C 704.136 358.474, 731.769 359.008, 748.500 355.557 C 812.597 342.336, 859.193 292.835, 867.934 228.678 C 873.074 190.952, 860.802 147.281, 836.692 117.500 C 814.625 90.243, 785.212 72.473, 749 64.522 C 741.711 62.921, 711.273 61.614, 704.500 62.611 M 652.667 100.667 C 651.818 101.515, 651.811 267.691, 652.659 270.860 C 653.250 273.069, 653.615 273.176, 658.395 272.548 C 661.203 272.179, 663.930 271.452, 664.455 270.934 C 664.980 270.415, 665.655 267.917, 665.955 265.381 L 666.500 260.772 675.500 267.466 L 684.500 274.161 690.519 273.714 C 701.715 272.883, 710.523 266.489, 712.852 257.500 C 717.091 241.145, 716.889 176.779, 712.555 162.414 C 709.125 151.050, 701.735 145.217, 689.561 144.266 C 684.438 143.865, 682.297 144.272, 675.724 146.896 C 671.447 148.603, 667.510 150, 666.974 150 C 666.370 150, 666 141.106, 666 126.571 C 666 99.742, 666.077 100, 658.095 100 C 655.476 100, 653.033 100.300, 652.667 100.667 M 923.250 103.248 L 914 104.208 914 194.242 L 914 284.275 919.750 283.614 C 923.336 283.202, 925.970 282.326, 926.750 281.285 C 927.702 280.015, 928 269.900, 928 238.809 L 928 198 940.750 197.969 C 963.659 197.914, 977.009 194.924, 983.547 188.387 C 985.342 186.592, 987.862 182.508, 989.148 179.312 C 991.377 173.771, 991.486 172.358, 991.484 149 C 991.483 126.282, 991.331 124.173, 989.400 120 C 982.997 106.171, 972.933 101.896, 947.356 102.144 C 939.185 102.223, 928.337 102.720, 923.250 103.248 M 68.680 104.653 C 67.712 105.621, 67.863 281.236, 68.833 282.764 C 69.459 283.750, 76.886 283.970, 102.568 283.764 L 135.500 283.500 135.500 277 L 135.500 270.500 109.500 270.234 L 83.500 269.968 83.710 231.734 L 83.920 193.500 106.710 193 L 129.500 192.500 129.500 186.500 L 129.500 180.500 106.688 180 L 83.877 179.500 83.877 148.500 L 83.878 117.500 108.486 117.232 L 133.095 116.965 132.797 110.732 L 132.500 104.500 100.930 104.236 C 83.567 104.091, 69.055 104.279, 68.680 104.653 M 927.917 115.416 C 927.688 115.644, 927.624 131.169, 927.776 149.916 L 928.051 184 944.776 183.978 C 963.233 183.954, 966.851 183.083, 972.192 177.376 C 976.028 173.278, 976.954 167.733, 976.932 149 C 976.908 128.876, 975.687 124.075, 969.500 119.787 C 967.300 118.262, 963.076 116.561, 960.114 116.007 C 954.940 115.040, 928.775 114.559, 927.917 115.416 M 428.099 130.918 C 426.980 131.626, 426.836 133.631, 427.385 140.902 L 428.072 150 423.036 150 L 418 150 418 156.500 L 418 163 422.750 163.001 L 427.500 163.002 427.568 210.751 C 427.661 276.492, 428.564 280.672, 443.392 283.981 C 446.403 284.652, 452.075 284.811, 458.142 284.393 L 468 283.714 468 278.357 L 468 273 458.723 273 C 448.913 273, 446.157 272.030, 443.881 267.777 C 442.153 264.548, 441.117 240.383, 440.977 200 L 440.850 163.500 450.449 162.926 C 455.728 162.611, 460.550 161.850, 461.165 161.235 C 461.779 160.621, 462.500 157.856, 462.765 155.093 L 463.248 150.068 451.874 149.784 L 440.500 149.500 440.843 143.811 C 441.390 134.723, 440.479 132.227, 436.176 131.032 C 431.693 129.787, 429.925 129.762, 428.099 130.918 M 733.071 150.250 C 733.518 152.588, 735.716 164.175, 737.956 176 C 758.896 286.585, 758.559 284.330, 755.480 293.056 C 752.457 301.624, 746.400 306.896, 737.703 308.528 L 734 309.223 734 314.611 L 734 320 737.250 319.985 C 741.526 319.966, 752.354 317.385, 755.940 315.531 C 763.748 311.493, 769.966 298.789, 773.330 280 C 774.167 275.325, 778.013 255.975, 781.876 237 C 789.066 201.689, 795.322 168.410, 796.445 159.500 C 796.792 156.750, 797.307 153.318, 797.590 151.874 C 798.357 147.957, 795.811 146, 789.948 146 C 784.412 146, 784.699 145.542, 783.055 157 C 782.542 160.575, 781.421 168, 780.565 173.500 C 779.708 179, 776.532 199.451, 773.506 218.947 C 770.481 238.443, 767.536 254.864, 766.961 255.439 C 766.235 256.165, 765.683 256.105, 765.149 255.242 C 764.727 254.559, 760.671 231.613, 756.136 204.250 C 751.600 176.888, 747.428 153.034, 746.865 151.242 C 745.580 147.158, 743.443 146, 737.195 146 L 732.258 146 733.071 150.250 M 1322.949 153.217 C 1316.121 155.848, 1309.965 158, 1309.269 158 C 1308.574 158, 1305.866 156.472, 1303.252 154.603 C 1293.576 147.688, 1285.312 147.279, 1270.879 153 C 1265.329 155.200, 1260.442 157, 1260.019 157 C 1259.596 157, 1258.992 155.711, 1258.677 154.135 C 1258.065 151.076, 1255.385 150, 1248.375 150 L 1245 150 1245.015 214.750 C 1245.024 250.363, 1245.408 280.095, 1245.869 280.822 C 1246.735 282.189, 1252.775 283.934, 1256.781 283.976 L 1259.061 284 1258.959 226.750 L 1258.857 169.500 1270.178 165.174 C 1283.592 160.048, 1287.819 159.995, 1292.199 164.897 C 1297.894 171.270, 1298.145 173.761, 1298.734 229.741 C 1299.123 266.697, 1299.595 281.249, 1300.429 281.941 C 1301.064 282.468, 1304.040 283.035, 1307.042 283.200 L 1312.500 283.500 1312.500 225.885 L 1312.500 168.270 1323.846 164.536 C 1332.817 161.583, 1336.062 160.937, 1339.346 161.447 C 1351.132 163.279, 1351.993 168.186, 1351.997 233.559 C 1351.999 268.827, 1352.293 280.017, 1353.250 281.321 C 1354.118 282.504, 1356.180 283.097, 1360 283.262 L 1365.500 283.500 1365.405 229 C 1365.286 161.238, 1364.705 156.951, 1354.970 151.985 C 1352.652 150.802, 1347.687 149.626, 1343.167 149.189 C 1335.465 148.445, 1335.203 148.497, 1322.949 153.217 M 259.968 149.902 C 248.904 153.435, 244.142 160.503, 241.509 177.297 C 240.087 186.361, 239.897 193.480, 240.291 222.772 C 240.797 260.384, 241.456 265.983, 246.359 274.350 C 248.384 277.805, 250.339 279.509, 254.749 281.664 C 259.808 284.135, 261.857 284.515, 271.770 284.823 C 279.463 285.062, 285.651 284.655, 291.270 283.539 C 303.824 281.046, 303 281.623, 303 275.328 L 303 269.790 298.750 270.441 C 296.413 270.800, 288.200 271.333, 280.500 271.627 C 267.052 272.140, 266.362 272.069, 263 269.829 C 256.294 265.361, 254.982 260.760, 254.018 238.337 C 253.549 227.427, 253.303 218.364, 253.471 218.196 C 253.639 218.028, 264.739 217.578, 278.138 217.195 L 302.500 216.500 302.141 195.500 C 301.944 183.950, 301.373 172.250, 300.873 169.500 C 299.522 162.074, 296.081 156.084, 291.156 152.586 C 286.928 149.583, 286.485 149.495, 274.656 149.297 C 267.970 149.185, 261.361 149.457, 259.968 149.902 M 357.945 152.369 C 346.647 157.328, 345.178 157.558, 344.407 154.487 C 343.613 151.322, 341.788 150.395, 335.750 150.089 L 331 149.849 331 215.302 C 331 267.129, 331.265 280.975, 332.275 281.813 C 332.976 282.395, 335.898 283.183, 338.767 283.563 L 343.984 284.255 344.242 226.878 L 344.500 169.500 356 165.240 C 365.266 161.808, 368.363 161.081, 371.943 161.498 C 377.012 162.088, 380.450 164.798, 381.962 169.397 C 383.765 174.881, 384.982 204.498, 384.991 243.128 C 384.998 272.394, 385.283 280.990, 386.275 281.813 C 386.976 282.395, 389.938 283.188, 392.856 283.575 L 398.161 284.279 397.762 228.390 C 397.409 178.973, 397.156 171.662, 395.576 165.266 C 393.434 156.589, 389.997 152.671, 382.603 150.475 C 374.235 147.990, 366.581 148.578, 357.945 152.369 M 498.897 149.867 C 493.380 151.047, 486.415 155.552, 485.223 158.712 C 482.508 165.911, 482 168.982, 482 178.181 C 482 193.305, 485.523 199.433, 502.356 213.586 C 521.383 229.584, 523.043 231.165, 525.147 235.287 C 528.096 241.069, 527.435 255.530, 523.893 262.673 C 520.092 270.341, 516.864 271.437, 502.068 270.087 C 495.516 269.489, 488.546 269, 486.578 269 L 483 269 483 275 C 483 278.300, 483.391 281, 483.869 281 C 484.347 281, 488.734 281.701, 493.619 282.558 C 506.841 284.878, 519.388 284.725, 525.204 282.174 C 529.983 280.078, 534.851 274.631, 537.426 268.500 C 539.214 264.242, 541 251.224, 541 242.448 C 541 230.688, 535.670 222.089, 521.507 211 C 509.270 201.419, 501.959 194.587, 498.376 189.385 C 495.095 184.620, 494.665 183.309, 494.792 178.458 C 494.971 171.663, 496.523 165.641, 498.522 163.982 C 501.147 161.803, 510.570 160.111, 514.717 161.074 C 516.798 161.557, 521.087 161.963, 524.250 161.976 C 530.929 162.004, 534 159.840, 534 155.107 C 534 152.348, 533.709 152.160, 527.750 151.055 C 519.630 149.550, 503.492 148.885, 498.897 149.867 M 1026 150.874 L 1016.500 152.557 1016.672 156.006 C 1016.943 161.432, 1020.089 163.361, 1027.330 162.542 C 1030.551 162.178, 1034.299 161.457, 1035.658 160.940 C 1038.944 159.691, 1044.980 159.748, 1048.756 161.065 C 1053.039 162.558, 1053.791 165.368, 1054.292 181.750 L 1054.727 196 1051.742 196 C 1050.100 196, 1043.974 196.705, 1038.128 197.568 C 1020.223 200.209, 1012.255 205.869, 1010.068 217.500 C 1008.960 223.391, 1010.483 268.728, 1011.962 273.873 C 1014.160 281.522, 1019.154 285, 1027.941 285 C 1034.068 285, 1038.438 282.940, 1045.879 276.543 C 1048.837 274, 1051.762 272.085, 1052.379 272.287 C 1052.996 272.490, 1053.638 274.531, 1053.807 276.823 C 1054.170 281.749, 1055.750 282.893, 1062.686 283.251 L 1067.500 283.500 1067.767 230.500 C 1068.075 169.378, 1067.552 159.724, 1063.660 154.621 C 1061.621 151.947, 1059.891 150.928, 1055.965 150.086 C 1048.929 148.577, 1037.230 148.884, 1026 150.874 M 1121.574 154.488 C 1116.665 157.465, 1112.278 159.672, 1111.824 159.391 C 1111.371 159.111, 1111 157.322, 1111 155.416 C 1111 151.424, 1108.617 150, 1101.935 150 L 1098 150 1098 215.378 C 1098 267.143, 1098.265 280.975, 1099.275 281.813 C 1099.976 282.395, 1102.912 283.185, 1105.799 283.568 L 1111.048 284.264 1110.969 228.382 C 1110.905 183.415, 1111.144 172.347, 1112.195 171.715 C 1123.711 164.786, 1130.340 161.711, 1136 160.672 L 1142.500 159.479 1143.037 154.822 C 1143.556 150.316, 1143.479 150.146, 1140.662 149.582 C 1133.744 148.199, 1130.620 149.002, 1121.574 154.488 M 1173.778 150.798 C 1163.092 152.884, 1162.236 153.587, 1164.523 158.407 C 1166.759 163.120, 1169.252 163.656, 1179.537 161.635 C 1190.311 159.518, 1193.796 159.578, 1197.680 161.947 C 1201.388 164.207, 1201.746 165.940, 1202.284 184.250 L 1202.629 196 1199.308 196 C 1192.370 196, 1175.866 199.085, 1170.788 201.330 C 1164.415 204.149, 1159.502 209.455, 1157.912 215.237 C 1156.340 220.953, 1157.450 264.195, 1159.376 272.285 C 1161.574 281.513, 1166.207 285, 1176.272 285 C 1182.047 285, 1186.272 282.875, 1194.845 275.658 C 1200.049 271.276, 1200.996 271.137, 1201.014 274.750 C 1201.034 278.851, 1202.025 281.796, 1203.586 282.395 C 1204.350 282.688, 1207.231 283.227, 1209.988 283.593 L 1215 284.258 1215 222.945 C 1215 162.680, 1214.964 161.557, 1212.898 157.288 C 1211.639 154.689, 1209.532 152.283, 1207.648 151.295 C 1203.034 148.877, 1184.979 148.611, 1173.778 150.798 M 151.555 153.750 C 151.911 155.813, 152.803 160.650, 153.538 164.500 C 154.273 168.350, 155.819 176.675, 156.975 183 C 158.131 189.325, 159.498 196.525, 160.013 199 C 160.527 201.475, 162.784 213.175, 165.027 225 C 167.270 236.825, 169.937 250.775, 170.954 256 C 171.970 261.225, 173.343 268.650, 174.005 272.500 C 176.104 284.718, 175.398 284.115, 187.198 283.785 L 197.408 283.500 200.091 270 C 201.567 262.575, 205.315 243.914, 208.421 228.530 C 214.061 200.586, 215.406 193.462, 219.058 172.184 C 221.189 159.767, 221.531 152.446, 220.024 151.515 C 219.487 151.183, 216.844 150.650, 214.151 150.331 L 209.253 149.751 207.586 159.126 C 206.669 164.282, 205.493 170.750, 204.973 173.500 C 204.452 176.250, 203.351 182.325, 202.526 187 C 201.700 191.675, 199.670 202.925, 198.015 212 C 196.359 221.075, 194.355 232.100, 193.561 236.500 C 188.242 265.984, 188.724 264.105, 186.565 263.792 C 185.077 263.577, 184.362 262.452, 183.838 259.500 C 183.447 257.300, 181.974 248.975, 180.563 241 C 179.153 233.025, 177.311 222.675, 176.470 218 C 171.756 191.806, 170.366 183.897, 167.509 167 C 164.980 152.048, 163.389 150, 154.305 150 C 150.933 150, 150.914 150.026, 151.555 153.750 M 673.750 159.714 L 666 162.219 666.024 206.860 L 666.049 251.500 674.774 256.427 C 687.546 263.638, 693.990 262.799, 698.155 253.382 C 700.898 247.183, 702.368 222.995, 701.572 197.173 C 700.718 169.461, 699.203 163.155, 692.382 158.931 C 688.303 156.405, 683.342 156.613, 673.750 159.714 M 266.542 161.729 C 258.920 163.665, 256.066 169.932, 255.416 186.158 C 255.144 192.946, 254.743 199.963, 254.524 201.750 L 254.126 205 271.983 205 L 289.840 205 289.379 195.250 C 288.358 173.619, 285.991 165.326, 279.970 162.279 C 277.538 161.049, 270.375 160.756, 266.542 161.729 M 1034.380 210.925 C 1029.220 211.770, 1025.196 214.354, 1023.955 217.617 C 1022.857 220.506, 1022.817 241.019, 1023.876 258.367 C 1024.492 268.461, 1024.892 270.452, 1026.550 271.687 C 1030.273 274.461, 1036.587 272.372, 1048.274 264.501 L 1053.378 261.064 1053.439 235.532 L 1053.500 210 1046 210.125 C 1041.875 210.194, 1036.646 210.554, 1034.380 210.925 M 1183 210.674 C 1178.278 211.432, 1173.229 214.203, 1172.115 216.647 C 1170.854 219.415, 1170.728 242.189, 1171.877 259.822 C 1172.408 267.970, 1173.019 271.400, 1174.057 272.057 C 1177.764 274.402, 1185.037 271.930, 1195.500 264.769 L 1201.500 260.662 1201.500 235.331 L 1201.500 210 1193.500 210.136 C 1189.100 210.211, 1184.375 210.453, 1183 210.674" stroke="none" fill="black" fill-rule="evenodd"/>
	<path fill-opacity="0.155" d="M 1 210 L 1 420 714.500 420 L 1428 420 1428 210 L 1428 0 714.500 0 L 1 0 1 210 M 16.247 209.750 L 16.500 403.500 715.500 403.500 L 1414.500 403.500 1414.753 209.750 L 1415.005 16 715.500 16 L 15.995 16 16.247 209.750 M 708.500 62.631 C 682.883 65.420, 658.685 74.041, 638.185 87.681 C 627.511 94.783, 610.773 110.815, 602.440 121.919 C 589.907 138.618, 579.251 163.504, 575.339 185.211 C 573.086 197.713, 573.055 222.407, 575.276 234.500 C 579.347 256.664, 589.909 281.385, 602.440 298.081 C 610.361 308.635, 627.217 324.934, 636.867 331.370 C 659.016 346.142, 684.256 355.010, 709.310 356.821 C 743.436 359.289, 775.270 350.985, 803.444 332.267 C 815.474 324.275, 834.149 306.061, 841.655 295 C 853.871 277, 863.269 253.707, 866.570 233.249 C 869.185 217.049, 868.417 191.180, 864.915 177.500 C 862.409 167.709, 856.401 150.871, 852.962 144 C 843.230 124.555, 826.546 104.573, 809.098 91.461 C 792.691 79.131, 767.025 68.107, 746.318 64.496 C 737.412 62.943, 715.540 61.864, 708.500 62.631 M 652.750 99.566 C 652.337 99.988, 652 139.183, 652 186.667 L 652 273 656.777 273 C 663.065 273, 666 270.932, 666 266.502 C 666 264.641, 666.400 262.871, 666.888 262.569 C 667.376 262.267, 671.670 265.001, 676.429 268.645 L 685.081 275.269 690.290 274.652 C 693.155 274.313, 698.406 272.565, 701.959 270.768 C 714.501 264.424, 715.182 261.591, 715.733 213.500 C 716.084 182.836, 715.896 176.166, 714.469 168.500 C 711.448 152.282, 704.337 145.106, 690.397 144.212 C 684.251 143.817, 681.993 144.164, 675.646 146.479 C 671.525 147.982, 667.668 148.913, 667.076 148.547 C 666.359 148.104, 666 140.275, 666 125.063 C 666 106.770, 665.724 102.015, 664.606 101.088 C 662.901 99.673, 653.788 98.503, 652.750 99.566 M 732.451 146.267 C 732.184 146.964, 734.019 158.326, 736.529 171.517 C 739.040 184.708, 742.432 202.700, 744.067 211.500 C 745.703 220.300, 749.092 238.525, 751.600 252 C 756.823 280.067, 757.222 287.289, 753.970 294.847 C 750.542 302.817, 745.443 306.499, 735.500 308.188 C 733.761 308.483, 733.500 309.307, 733.500 314.514 L 733.500 320.500 739 320.191 C 745.233 319.840, 753.063 317.620, 757.500 314.945 C 761.624 312.458, 767.377 304.516, 769.413 298.500 C 771.120 293.451, 774.820 275.900, 786.486 217.500 C 794.014 179.819, 798 157.129, 798 151.965 C 798 149.878, 797.341 147.698, 796.499 147 C 794.691 145.499, 786.938 144.595, 785.407 145.707 C 784.806 146.143, 782.868 155.725, 781.101 167 C 779.333 178.275, 777.001 193.125, 775.918 200 C 774.836 206.875, 773.243 217, 772.380 222.500 C 771.516 228, 770.177 236.271, 769.405 240.881 C 768.632 245.491, 768 250.301, 768 251.572 C 768 253.649, 766.410 255.743, 765.514 254.848 C 765.320 254.653, 761.319 231.496, 756.623 203.387 C 751.927 175.278, 747.554 151.114, 746.905 149.690 C 746.255 148.265, 744.369 146.627, 742.713 146.050 C 738.589 144.612, 733.041 144.730, 732.451 146.267 M 674.740 159.807 L 665.980 162.500 666.240 206.830 L 666.500 251.159 676.160 256.330 L 685.819 261.500 690.069 260 C 694.938 258.282, 697.707 255.043, 699.116 249.423 C 700.579 243.580, 701.383 192.244, 700.204 179.897 C 698.199 158.907, 692.442 154.365, 674.740 159.807" stroke="none" fill="black" fill-rule="evenodd"/>
</svg>